<svg width="192" height="146" viewBox="0 0 192 146" fill="none" xmlns="http://www.w3.org/2000/svg">
<path d="M191 50.4099L136.748 23.0094V36.7097L188.534 61.3701L136.748 102.471V86.0306L158.942 69.5903" stroke="black" stroke-width="3"/>
<path d="M0.999996 75.0704L55.2522 102.471V88.7707L3.466 64.1102L55.2522 23.0094V39.4497L33.0581 55.89" stroke="black" stroke-width="3"/>
<path d="M83.795 96.2552L98.1967 53.6816L112.598 11.1079L122.179 6.08427L90.6961 99.1522" stroke="#166363" stroke-width="3"/>
<path d="M74.1147 136.428L71.5233 105.558L82.5912 96.3071L86.7969 98.1131L91.7037 100.22L93.954 115.19L74.1147 136.428Z" fill="black"/>
<path d="M72.4646 140.589L80.4514 117.272" stroke="white" stroke-width="2"/>
<ellipse rx="3.02621" ry="3.17461" transform="matrix(0.919498 0.395485 -0.314508 0.949913 81.0416 115.549)" fill="white"/>
</svg>
