<svg width="140" height="140" viewBox="0 0 140 140" fill="none" xmlns="http://www.w3.org/2000/svg">
<path d="M138.923 53.1128L99.6152 29.3462V41.2295L137.136 62.6194L99.6152 98.2693V84.0093L115.696 69.7494" stroke="black" stroke-width="2"/>
<path d="M1.07708 74.5026L40.3848 98.2692V86.3859L2.86378 64.996L40.3848 29.3461V43.6061L24.3043 57.866" stroke="black" stroke-width="2"/>
<path d="M82.0421 11.614L88.9927 6.84848L66.1518 95.134L61.145 92.3858L71.5935 51.9999L82.0421 11.614Z" fill="#A9F1ED" fill-opacity="0.53" stroke="#166363"/>
<path d="M54.1219 130.494L52.2418 101.21L60.2717 92.4352L63.323 94.1484L66.8828 96.1471L68.5155 110.348L54.1219 130.494Z" fill="black"/>
<path d="M52.9247 134.441L58.7191 112.323" stroke="white"/>
<ellipse rx="2.30587" ry="2.94507" transform="matrix(0.875498 0.49236 -0.245962 0.971333 59.1474 110.688)" fill="white"/>
</svg>
